<svg width="100" height="100" viewBox="0 0 100 100" fill="none" xmlns="http://www.w3.org/2000/svg">
<g opacity="0.95">
<path d="M88.8889 77.7776H11.1111V59.222C9.04234 58.2311 7.1623 56.8869 5.55554 55.2498V77.7776C5.55554 79.251 6.14086 80.6641 7.18273 81.706C8.22459 82.7478 9.63767 83.3331 11.1111 83.3331H88.8889C90.3623 83.3331 91.7754 82.7478 92.8172 81.706C93.8591 80.6641 94.4444 79.251 94.4444 77.7776V55.2498C92.8494 56.8934 90.9664 58.2303 88.8889 59.1943V77.7776Z" fill="#333333"/>
<path d="M69.4444 62.222C70.1812 62.222 70.8877 61.9294 71.4086 61.4084C71.9296 60.8875 72.2222 60.181 72.2222 59.4443V44.2776H66.6667V49.9998H38.8889V55.5554H66.6667V59.4443C66.6667 60.181 66.9593 60.8875 67.4802 61.4084C68.0012 61.9294 68.7077 62.222 69.4444 62.222Z" fill="#333333"/>
<path d="M91.6666 16.6666H66.6666V12.1666C66.6374 10.3885 65.9048 8.69452 64.6293 7.45544C63.3538 6.21636 61.6392 5.53317 59.8611 5.55546H40.1389C38.3607 5.53317 36.6462 6.21636 35.3707 7.45544C34.0952 8.69452 33.3626 10.3885 33.3333 12.1666V16.6666H8.33332C7.59661 16.6666 6.89007 16.9592 6.36913 17.4802C5.8482 18.0011 5.55554 18.7076 5.55554 19.4443V41.6666C5.55554 45.3501 7.01883 48.8828 9.6235 51.4875C12.2282 54.0922 15.7609 55.5555 19.4444 55.5555H27.7778V59.4444C27.7778 60.1811 28.0704 60.8876 28.5914 61.4085C29.1123 61.9295 29.8188 62.2221 30.5555 62.2221C31.2923 62.2221 31.9988 61.9295 32.5197 61.4085C33.0407 60.8876 33.3333 60.1811 33.3333 59.4444V44.2777H27.7778V49.9999H19.4444C17.2343 49.9999 15.1147 49.1219 13.5519 47.5591C11.9891 45.9963 11.1111 43.8767 11.1111 41.6666V22.2221H88.8889V41.6666C88.8889 43.8767 88.0109 45.9963 86.4481 47.5591C84.8853 49.1219 82.7657 49.9999 80.5555 49.9999H77.7778V55.5555H80.5555C84.2391 55.5555 87.7718 54.0922 90.3765 51.4875C92.9811 48.8828 94.4444 45.3501 94.4444 41.6666V19.4443C94.4444 18.7076 94.1518 18.0011 93.6308 17.4802C93.1099 16.9592 92.4034 16.6666 91.6666 16.6666ZM61.1111 16.6666H38.8889V12.3055C38.9032 11.9837 39.0412 11.6798 39.2741 11.4573C39.507 11.2347 39.8168 11.1107 40.1389 11.111H59.8889C60.0457 11.1073 60.2018 11.1346 60.3481 11.1912C60.4945 11.2479 60.6282 11.3328 60.7417 11.4411C60.8552 11.5495 60.9462 11.6791 61.0096 11.8227C61.073 11.9662 61.1075 12.1208 61.1111 12.2777V16.6666Z" fill="#333333"/>
</g>
</svg>
