<svg width="100" height="100" viewBox="0 0 100 100" fill="none" xmlns="http://www.w3.org/2000/svg">
<path d="M4.34787 98.4375C4.34787 98.0231 4.57691 97.6257 4.9846 97.3326C5.39228 97.0396 5.94523 96.875 6.52179 96.875H84.7826C85.3592 96.875 85.9121 97.0396 86.3198 97.3326C86.7275 97.6257 86.9566 98.0231 86.9566 98.4375C86.9566 98.8519 86.7275 99.2493 86.3198 99.5424C85.9121 99.8354 85.3592 100 84.7826 100H6.52179C5.94523 100 5.39228 99.8354 4.9846 99.5424C4.57691 99.2493 4.34787 98.8519 4.34787 98.4375Z" fill="#333333"/>
<path d="M94.461 29.2309C96.2783 30.0996 99.0349 32.7434 96.4218 36.4996C94.2523 39.6153 89.7262 43.4278 84.9131 44.434C83.7563 44.6946 82.5354 44.7747 81.332 44.6691C80.1287 44.5634 78.9705 44.2745 77.9349 43.8215C73.1566 41.7653 67.5131 38.984 65.1218 37.7903C62.1044 38.8871 58.2957 39.1153 54.4262 38.3996L54.374 38.3871C54.6001 43.5465 57.0305 46.7684 68.9131 54.6996C79.5044 61.7653 85.787 71.0465 85.7262 79.5309C85.6827 85.0965 82.861 89.8746 77.5523 93.3403C77.1522 93.6036 76.6295 93.7496 76.087 93.7496H15.2175C14.6409 93.7496 14.088 93.585 13.6803 93.292C13.2726 92.999 13.0436 92.6015 13.0436 92.1871C13.0436 91.7727 13.2726 91.3753 13.6803 91.0823C14.088 90.7893 14.6409 90.6246 15.2175 90.6246H75.2218C79.2175 87.7965 81.3392 83.9684 81.374 79.5153C81.4305 72.009 75.5175 63.3746 65.9523 56.9903C53.2783 48.534 50.0001 44.5278 50.0001 37.4996C50.0001 37.3715 50.061 37.259 50.1001 37.1403C47.7218 36.2184 45.6653 34.9996 44.261 33.5246C42.5001 31.6809 38.7088 26.9465 41.5218 22.7559C41.6463 22.5712 41.8202 22.406 42.0335 22.2696C42.2468 22.1332 42.4954 22.0284 42.7651 21.9611C43.0348 21.8937 43.3203 21.8652 43.6053 21.8772C43.8903 21.8892 44.1692 21.9414 44.4262 22.0309C44.6831 22.1204 44.913 22.2453 45.1028 22.3986C45.2925 22.552 45.4384 22.7306 45.532 22.9245C45.6257 23.1183 45.6653 23.3235 45.6487 23.5284C45.632 23.7332 45.5593 23.9337 45.4349 24.1184C44.1697 26.0028 45.0696 28.859 47.8436 31.759C49.4436 33.434 52.3044 34.7871 55.5001 35.3746C58.7479 35.9715 61.8349 35.709 63.987 34.6496C64.3532 34.4693 64.7873 34.3739 65.2311 34.3761C65.6749 34.3783 66.1071 34.4782 66.4697 34.6621C66.5479 34.6996 74.1957 38.5715 80.161 41.1434C80.6839 41.3747 81.2709 41.5208 81.8809 41.5716C82.4908 41.6223 83.1088 41.5764 83.6914 41.4371C87.0566 40.7309 90.7566 37.6496 92.5262 35.1059C93.9566 33.0496 92.4914 32.0684 91.8262 31.7184C76.8392 22.4153 69.3175 12.7496 69.0088 12.3403C68.8657 12.1511 68.7781 11.9429 68.7511 11.7285C68.7242 11.514 68.7586 11.2979 68.8523 11.0934C69.7927 9.00745 70.5764 6.88668 71.2001 4.74027C66.6523 6.70902 58.8305 9.45902 50.687 9.45902C39.3653 9.45902 13.0436 12.4965 13.0436 40.634C13.0436 40.7871 13.0827 56.084 21.6088 72.9059C21.7098 73.0993 21.7563 73.3053 21.7458 73.5118C21.7354 73.7183 21.668 73.9212 21.5476 74.1088C21.4273 74.2965 21.2564 74.4651 21.0447 74.605C20.8331 74.7448 20.585 74.8531 20.3147 74.9236C20.0445 74.994 19.7575 75.0253 19.4703 75.0155C19.1832 75.0057 18.9016 74.955 18.6418 74.8665C18.3821 74.7779 18.1494 74.6533 17.9571 74.4996C17.7649 74.346 17.6169 74.1665 17.5218 73.9715C8.73487 56.634 8.69139 41.2653 8.69574 40.6246C8.69574 8.80277 40.8392 6.33089 50.687 6.33089C61.5957 6.33089 72.4783 0.384019 72.5827 0.321519C72.9071 0.145787 73.2928 0.0379032 73.6971 0.00977896C74.1014 -0.0183453 74.5087 0.0343835 74.874 0.162144C75.2377 0.290965 75.5441 0.49034 75.7585 0.737737C75.9728 0.985135 76.0866 1.27069 76.087 1.56214C76.087 4.62777 74.0653 9.58714 73.2783 11.3965C75.0957 13.5778 82.261 21.6496 94.461 29.2309Z" fill="#333333"/>
<path d="M23.9783 4.8125C30.9392 1.44062 38.7218 0 50 0C50.5766 0 51.1295 0.16462 51.5372 0.457646C51.9449 0.750671 52.174 1.1481 52.174 1.5625C52.174 1.9769 51.9449 2.37433 51.5372 2.66735C51.1295 2.96038 50.5766 3.125 50 3.125C39.6522 3.125 32.5957 4.40312 26.4044 7.40312C16.3435 12.2844 4.34787 22.0094 4.34787 40.625C4.34787 45.1594 4.34787 51.3687 8.63048 63.6844C8.75514 64.0826 8.65809 64.5 8.36008 64.8474C8.06208 65.1948 7.58678 65.4446 7.03583 65.5434C6.48487 65.6422 5.902 65.5822 5.41187 65.3761C4.92174 65.17 4.56326 64.8342 4.41309 64.4406C4.19617e-05 51.7563 4.57764e-05 45.3219 4.57764e-05 40.625C4.57764e-05 20.6375 13.0392 10.1156 23.9783 4.8125Z" fill="#333333"/>
</svg>
